<svg width="113" height="58" viewBox="0 0 113 58" xmlns="http://www.w3.org/2000/svg"><title>SMAS</title><path d="M15.982 9.28a8.276 8.276 0 0 0-3.384 1.152 11.955 11.955 0 0 0-2.856 2.376 11.424 11.424 0 0 0-1.992 3.216c-.496 1.2-.744 2.408-.744 3.624 0 1.024.224 1.96.672 2.808.448.848 1.008 1.68 1.68 2.496.672.816 1.4 1.656 2.184 2.52a22.03 22.03 0 0 1 2.184 2.856c.672 1.04 1.232 2.224 1.68 3.552.448 1.328.672 2.856.672 4.584-.032 2.048-.432 3.944-1.2 5.688-.768 1.744-1.792 3.264-3.072 4.56a15.15 15.15 0 0 1-4.464 3.12 14.266 14.266 0 0 1-5.28 1.32c-.32 0-.584-.096-.792-.288-.208-.192-.296-.496-.264-.912v-2.928c-.032-.32.056-.576.264-.768.208-.192.472-.288.792-.288 1.152-.16 2.256-.568 3.312-1.224a11.76 11.76 0 0 0 4.704-5.568c.48-1.168.72-2.328.72-3.48 0-1.152-.224-2.192-.672-3.12a13.614 13.614 0 0 0-1.68-2.64 58.41 58.41 0 0 0-2.184-2.544 23.888 23.888 0 0 1-2.184-2.808 15.703 15.703 0 0 1-1.68-3.36c-.448-1.232-.672-2.664-.672-4.296 0-2.048.392-3.968 1.176-5.76.784-1.792 1.84-3.352 3.168-4.68a15.558 15.558 0 0 1 4.56-3.168A14.55 14.55 0 0 1 15.982 4c.32 0 .584.096.792.288.208.192.312.496.312.912v3.024c0 .32-.104.576-.312.768-.208.192-.472.288-.792.288zm45.47 16.27L52.907 5.008l.048.048-.096-.144c-.032-.032-.048-.064-.048-.096l-.336-.528c-.128-.192-.448-.288-.96-.288h-2.208c-.512 0-.848.096-1.008.288l-.384.576.096-.144c-.064.064-.096.128-.096.192l-3.73 9.05-3.71-8.954.048.048-.096-.144c-.032-.032-.048-.064-.048-.096l-.336-.528c-.128-.192-.448-.288-.96-.288h-2.208c-.512 0-.848.096-1.008.288l-.384.576.096-.144c-.064.064-.096.128-.096.192L16.234 51.616l-.144.432a1.578 1.578 0 0 0-.048.384c0 .256.104.44.312.552.208.112.488.168.84.168h3.6c.32 0 .6-.088.84-.264.24-.176.424-.424.552-.744v.096l3.264-8.256c.704-1.824 1.472-3.76 2.304-5.808L37.93 12.832l3.374 8.12-12.638 30.664-.144.432a1.578 1.578 0 0 0-.048.384c0 .256.104.44.312.552.208.112.488.168.84.168h3.6c.32 0 .6-.088.84-.264.24-.176.424-.424.552-.744v.096l3.264-8.256c.704-1.824 1.472-3.76 2.304-5.808l10.176-25.344 5.424 13.056 2.647 6.563-8.347 19.07-.096.192c-.032.096-.032.304 0 .624-.032.544.368.816 1.2.816h41.52c.8 0 1.2-.272 1.2-.816l-.144-.816c-1.6-3.84-3.248-7.712-4.944-11.616l-10.32-23.232a530.344 530.344 0 0 1-4.944-11.664 1.583 1.583 0 0 1-.096-.264.905.905 0 0 0-.192-.336 1.158 1.158 0 0 0-.408-.288c-.176-.08-.408-.12-.696-.12h-.24c-.576 0-.936.104-1.08.312a4.954 4.954 0 0 0-.36.6L61.453 25.55zM110.34 9.28a8.276 8.276 0 0 0-3.384 1.152 11.955 11.955 0 0 0-2.856 2.376 11.424 11.424 0 0 0-1.992 3.216c-.496 1.2-.744 2.408-.744 3.624 0 1.024.224 1.96.672 2.808.448.848 1.008 1.68 1.68 2.496.672.816 1.4 1.656 2.184 2.52a22.03 22.03 0 0 1 2.184 2.856c.672 1.04 1.232 2.224 1.68 3.552.448 1.328.672 2.856.672 4.584-.032 2.048-.432 3.944-1.2 5.688-.768 1.744-1.792 3.264-3.072 4.56a15.15 15.15 0 0 1-4.464 3.12 14.266 14.266 0 0 1-5.28 1.32c-.32 0-.584-.096-.792-.288-.208-.192-.296-.496-.264-.912v-2.928c-.032-.32.056-.576.264-.768.208-.192.472-.288.792-.288 1.152-.16 2.256-.568 3.312-1.224a11.76 11.76 0 0 0 4.704-5.568c.48-1.168.72-2.328.72-3.48 0-1.152-.224-2.192-.672-3.12a13.614 13.614 0 0 0-1.68-2.64 58.41 58.41 0 0 0-2.184-2.544 23.888 23.888 0 0 1-2.184-2.808 15.702 15.702 0 0 1-1.68-3.36c-.448-1.232-.672-2.664-.672-4.296 0-2.048.392-3.968 1.176-5.76.784-1.792 1.84-3.352 3.168-4.68a15.558 15.558 0 0 1 4.56-3.168A14.55 14.55 0 0 1 110.338 4c.32 0 .584.096.792.288.208.192.312.496.312.912v3.024c0 .32-.104.576-.312.768-.208.192-.472.288-.792.288z" stroke="#A74544" stroke-width="2" fill="none" fill-rule="evenodd"/></svg>